<mxfile host="Electron" modified="2024-05-01T08:50:01.235Z" agent="Mozilla/5.0 (Windows NT 10.0; Win64; x64) AppleWebKit/537.36 (KHTML, like Gecko) draw.io/24.2.5 Chrome/120.0.6099.109 Electron/28.1.0 Safari/537.36" etag="--_RCMzjdygM7C__JK7k" version="24.2.5" type="device">
  <diagram id="C5RBs43oDa-KdzZeNtuy" name="Page-1">
    <mxGraphModel dx="1715" dy="1810" grid="1" gridSize="10" guides="1" tooltips="1" connect="1" arrows="1" fold="1" page="1" pageScale="1" pageWidth="1169" pageHeight="827" math="0" shadow="0">
      <root>
        <mxCell id="WIyWlLk6GJQsqaUBKTNV-0" />
        <mxCell id="WIyWlLk6GJQsqaUBKTNV-1" parent="WIyWlLk6GJQsqaUBKTNV-0" />
        <mxCell id="1EVXWLcRG-oIRTYU0K3B-13" value="&lt;p style=&quot;line-height: 130%;&quot;&gt;&lt;br&gt;&lt;/p&gt;" style="html=1;dropTarget=0;whiteSpace=wrap;align=center;" vertex="1" parent="WIyWlLk6GJQsqaUBKTNV-1">
          <mxGeometry x="600" y="40" width="470" height="760" as="geometry" />
        </mxCell>
        <mxCell id="1EVXWLcRG-oIRTYU0K3B-14" value="" style="shape=module;jettyWidth=8;jettyHeight=4;" vertex="1" parent="1EVXWLcRG-oIRTYU0K3B-13">
          <mxGeometry x="1" width="20" height="20" relative="1" as="geometry">
            <mxPoint x="-27" y="7" as="offset" />
          </mxGeometry>
        </mxCell>
        <mxCell id="1EVXWLcRG-oIRTYU0K3B-10" value="In Memory&lt;div&gt;Map&lt;/div&gt;" style="shape=cylinder3;whiteSpace=wrap;html=1;boundedLbl=1;backgroundOutline=1;size=15;" vertex="1" parent="WIyWlLk6GJQsqaUBKTNV-1">
          <mxGeometry x="875" y="670" width="70" height="90" as="geometry" />
        </mxCell>
        <mxCell id="1EVXWLcRG-oIRTYU0K3B-11" value="" style="html=1;dropTarget=0;whiteSpace=wrap;" vertex="1" parent="WIyWlLk6GJQsqaUBKTNV-1">
          <mxGeometry x="40" y="40" width="440" height="760" as="geometry" />
        </mxCell>
        <mxCell id="1EVXWLcRG-oIRTYU0K3B-12" value="" style="shape=module;jettyWidth=8;jettyHeight=4;" vertex="1" parent="1EVXWLcRG-oIRTYU0K3B-11">
          <mxGeometry x="1" width="20" height="20" relative="1" as="geometry">
            <mxPoint x="-27" y="7" as="offset" />
          </mxGeometry>
        </mxCell>
        <mxCell id="1EVXWLcRG-oIRTYU0K3B-17" value="&lt;span style=&quot;text-wrap: wrap;&quot;&gt;«Component»&lt;/span&gt;&lt;br style=&quot;text-wrap: wrap;&quot;&gt;&lt;b style=&quot;text-wrap: wrap;&quot;&gt;Frontend&lt;/b&gt;" style="text;html=1;align=center;verticalAlign=middle;resizable=0;points=[];autosize=1;strokeColor=none;fillColor=none;" vertex="1" parent="WIyWlLk6GJQsqaUBKTNV-1">
          <mxGeometry x="210" y="70" width="100" height="40" as="geometry" />
        </mxCell>
        <mxCell id="1EVXWLcRG-oIRTYU0K3B-18" value="&lt;span style=&quot;text-wrap: wrap;&quot;&gt;«Component»&lt;/span&gt;&lt;br style=&quot;text-wrap: wrap;&quot;&gt;&lt;b style=&quot;text-wrap: wrap;&quot;&gt;Backend&lt;/b&gt;" style="text;html=1;align=center;verticalAlign=middle;resizable=0;points=[];autosize=1;strokeColor=none;fillColor=none;" vertex="1" parent="WIyWlLk6GJQsqaUBKTNV-1">
          <mxGeometry x="740" y="70" width="100" height="40" as="geometry" />
        </mxCell>
        <mxCell id="1EVXWLcRG-oIRTYU0K3B-19" value="&lt;b&gt;&amp;lt;&amp;lt;interface&amp;gt;&amp;gt;&lt;/b&gt;&lt;div&gt;&lt;b&gt;Parser&lt;/b&gt;&lt;/div&gt;" style="swimlane;fontStyle=0;childLayout=stackLayout;horizontal=1;startSize=40;fillColor=none;horizontalStack=0;resizeParent=1;resizeParentMax=0;resizeLast=0;collapsible=1;marginBottom=0;whiteSpace=wrap;html=1;" vertex="1" parent="WIyWlLk6GJQsqaUBKTNV-1">
          <mxGeometry x="840" y="296" width="140" height="66" as="geometry" />
        </mxCell>
        <mxCell id="1EVXWLcRG-oIRTYU0K3B-20" value="+ field: type" style="text;strokeColor=none;fillColor=none;align=left;verticalAlign=top;spacingLeft=4;spacingRight=4;overflow=hidden;rotatable=0;points=[[0,0.5],[1,0.5]];portConstraint=eastwest;whiteSpace=wrap;html=1;" vertex="1" parent="1EVXWLcRG-oIRTYU0K3B-19">
          <mxGeometry y="40" width="140" height="26" as="geometry" />
        </mxCell>
        <mxCell id="1EVXWLcRG-oIRTYU0K3B-23" value="" style="rounded=0;whiteSpace=wrap;html=1;" vertex="1" parent="WIyWlLk6GJQsqaUBKTNV-1">
          <mxGeometry x="670" y="-45" width="20" height="20" as="geometry" />
        </mxCell>
        <mxCell id="1EVXWLcRG-oIRTYU0K3B-24" value="" style="rounded=0;whiteSpace=wrap;html=1;" vertex="1" parent="WIyWlLk6GJQsqaUBKTNV-1">
          <mxGeometry x="780" y="-45" width="20" height="20" as="geometry" />
        </mxCell>
        <mxCell id="1EVXWLcRG-oIRTYU0K3B-25" value="" style="rounded=0;orthogonalLoop=1;jettySize=auto;html=1;endArrow=halfCircle;endFill=0;endSize=6;strokeWidth=1;sketch=0;exitX=1;exitY=0.5;exitDx=0;exitDy=0;" edge="1" target="1EVXWLcRG-oIRTYU0K3B-27" parent="WIyWlLk6GJQsqaUBKTNV-1" source="1EVXWLcRG-oIRTYU0K3B-23">
          <mxGeometry relative="1" as="geometry">
            <mxPoint x="730" y="-40" as="sourcePoint" />
          </mxGeometry>
        </mxCell>
        <mxCell id="1EVXWLcRG-oIRTYU0K3B-26" value="" style="rounded=0;orthogonalLoop=1;jettySize=auto;html=1;endArrow=oval;endFill=0;sketch=0;sourcePerimeterSpacing=0;targetPerimeterSpacing=0;endSize=10;exitX=0;exitY=0.5;exitDx=0;exitDy=0;" edge="1" target="1EVXWLcRG-oIRTYU0K3B-27" parent="WIyWlLk6GJQsqaUBKTNV-1" source="1EVXWLcRG-oIRTYU0K3B-24">
          <mxGeometry relative="1" as="geometry">
            <mxPoint x="690" y="-40" as="sourcePoint" />
          </mxGeometry>
        </mxCell>
        <mxCell id="1EVXWLcRG-oIRTYU0K3B-27" value="" style="ellipse;whiteSpace=wrap;html=1;align=center;aspect=fixed;fillColor=none;strokeColor=none;resizable=0;perimeter=centerPerimeter;rotatable=0;allowArrows=0;points=[];outlineConnect=1;" vertex="1" parent="WIyWlLk6GJQsqaUBKTNV-1">
          <mxGeometry x="730" y="-40" width="10" height="10" as="geometry" />
        </mxCell>
        <mxCell id="1EVXWLcRG-oIRTYU0K3B-40" value="REST&lt;br&gt;API" style="text;html=1;align=center;verticalAlign=middle;resizable=0;points=[];autosize=1;strokeColor=none;fillColor=none;" vertex="1" parent="WIyWlLk6GJQsqaUBKTNV-1">
          <mxGeometry x="705" y="-80" width="60" height="40" as="geometry" />
        </mxCell>
        <mxCell id="1EVXWLcRG-oIRTYU0K3B-57" value="" style="endArrow=classic;startArrow=classic;html=1;rounded=0;" edge="1" parent="WIyWlLk6GJQsqaUBKTNV-1" source="1EVXWLcRG-oIRTYU0K3B-45">
          <mxGeometry width="50" height="50" relative="1" as="geometry">
            <mxPoint x="220" y="390" as="sourcePoint" />
            <mxPoint x="220" y="364" as="targetPoint" />
          </mxGeometry>
        </mxCell>
        <mxCell id="1EVXWLcRG-oIRTYU0K3B-59" value="&lt;b&gt;Main&lt;/b&gt;" style="swimlane;fontStyle=0;childLayout=stackLayout;horizontal=1;startSize=26;fillColor=none;horizontalStack=0;resizeParent=1;resizeParentMax=0;resizeLast=0;collapsible=1;marginBottom=0;whiteSpace=wrap;html=1;" vertex="1" parent="WIyWlLk6GJQsqaUBKTNV-1">
          <mxGeometry x="80" y="530" width="140" height="52" as="geometry" />
        </mxCell>
        <mxCell id="1EVXWLcRG-oIRTYU0K3B-60" value="+ field: type" style="text;strokeColor=none;fillColor=none;align=left;verticalAlign=top;spacingLeft=4;spacingRight=4;overflow=hidden;rotatable=0;points=[[0,0.5],[1,0.5]];portConstraint=eastwest;whiteSpace=wrap;html=1;" vertex="1" parent="1EVXWLcRG-oIRTYU0K3B-59">
          <mxGeometry y="26" width="140" height="26" as="geometry" />
        </mxCell>
        <mxCell id="1EVXWLcRG-oIRTYU0K3B-63" value="" style="endArrow=classic;html=1;rounded=0;" edge="1" parent="WIyWlLk6GJQsqaUBKTNV-1" target="1EVXWLcRG-oIRTYU0K3B-49">
          <mxGeometry width="50" height="50" relative="1" as="geometry">
            <mxPoint x="220" y="230" as="sourcePoint" />
            <mxPoint x="470" y="400" as="targetPoint" />
          </mxGeometry>
        </mxCell>
        <mxCell id="1EVXWLcRG-oIRTYU0K3B-64" value="&lt;b&gt;&amp;lt;&amp;lt;interface&amp;gt;&amp;gt;&lt;/b&gt;&lt;div&gt;&lt;b&gt;CRUDService&lt;/b&gt;&lt;/div&gt;" style="swimlane;fontStyle=0;childLayout=stackLayout;horizontal=1;startSize=40;fillColor=none;horizontalStack=0;resizeParent=1;resizeParentMax=0;resizeLast=0;collapsible=1;marginBottom=0;whiteSpace=wrap;html=1;" vertex="1" parent="WIyWlLk6GJQsqaUBKTNV-1">
          <mxGeometry x="840" y="490" width="140" height="66" as="geometry" />
        </mxCell>
        <mxCell id="1EVXWLcRG-oIRTYU0K3B-65" value="+ field: type" style="text;strokeColor=none;fillColor=none;align=left;verticalAlign=top;spacingLeft=4;spacingRight=4;overflow=hidden;rotatable=0;points=[[0,0.5],[1,0.5]];portConstraint=eastwest;whiteSpace=wrap;html=1;" vertex="1" parent="1EVXWLcRG-oIRTYU0K3B-64">
          <mxGeometry y="40" width="140" height="26" as="geometry" />
        </mxCell>
        <mxCell id="1EVXWLcRG-oIRTYU0K3B-68" value="&lt;b&gt;&amp;lt;&amp;lt;interface&amp;gt;&amp;gt;&lt;/b&gt;&lt;div&gt;&lt;b&gt;Exceptions&lt;/b&gt;&lt;/div&gt;" style="swimlane;fontStyle=0;childLayout=stackLayout;horizontal=1;startSize=40;fillColor=none;horizontalStack=0;resizeParent=1;resizeParentMax=0;resizeLast=0;collapsible=1;marginBottom=0;whiteSpace=wrap;html=1;" vertex="1" parent="WIyWlLk6GJQsqaUBKTNV-1">
          <mxGeometry x="840" y="126" width="140" height="66" as="geometry" />
        </mxCell>
        <mxCell id="1EVXWLcRG-oIRTYU0K3B-69" value="+ field: type" style="text;strokeColor=none;fillColor=none;align=left;verticalAlign=top;spacingLeft=4;spacingRight=4;overflow=hidden;rotatable=0;points=[[0,0.5],[1,0.5]];portConstraint=eastwest;whiteSpace=wrap;html=1;" vertex="1" parent="1EVXWLcRG-oIRTYU0K3B-68">
          <mxGeometry y="40" width="140" height="26" as="geometry" />
        </mxCell>
        <mxCell id="1EVXWLcRG-oIRTYU0K3B-83" style="edgeStyle=orthogonalEdgeStyle;rounded=0;orthogonalLoop=1;jettySize=auto;html=1;entryX=0.5;entryY=0.17;entryDx=0;entryDy=0;entryPerimeter=0;" edge="1" parent="WIyWlLk6GJQsqaUBKTNV-1" source="1EVXWLcRG-oIRTYU0K3B-72" target="1EVXWLcRG-oIRTYU0K3B-79">
          <mxGeometry relative="1" as="geometry" />
        </mxCell>
        <mxCell id="1EVXWLcRG-oIRTYU0K3B-72" value="Views" style="shape=folder;fontStyle=1;spacingTop=10;tabWidth=40;tabHeight=14;tabPosition=left;html=1;whiteSpace=wrap;" vertex="1" parent="WIyWlLk6GJQsqaUBKTNV-1">
          <mxGeometry x="80" y="140" width="140" height="90" as="geometry" />
        </mxCell>
        <mxCell id="1EVXWLcRG-oIRTYU0K3B-89" style="edgeStyle=orthogonalEdgeStyle;rounded=0;orthogonalLoop=1;jettySize=auto;html=1;" edge="1" parent="WIyWlLk6GJQsqaUBKTNV-1" source="1EVXWLcRG-oIRTYU0K3B-73" target="1EVXWLcRG-oIRTYU0K3B-88">
          <mxGeometry relative="1" as="geometry" />
        </mxCell>
        <mxCell id="1EVXWLcRG-oIRTYU0K3B-73" value="&lt;b&gt;&amp;lt;&amp;lt;interface&amp;gt;&amp;gt;&lt;/b&gt;&lt;div&gt;&lt;b&gt;API-Client&lt;/b&gt;&lt;/div&gt;" style="swimlane;fontStyle=0;childLayout=stackLayout;horizontal=1;startSize=40;fillColor=none;horizontalStack=0;resizeParent=1;resizeParentMax=0;resizeLast=0;collapsible=1;marginBottom=0;whiteSpace=wrap;html=1;" vertex="1" parent="WIyWlLk6GJQsqaUBKTNV-1">
          <mxGeometry x="280" y="530" width="140" height="92" as="geometry" />
        </mxCell>
        <mxCell id="1EVXWLcRG-oIRTYU0K3B-74" value="+ GetStructuredName()" style="text;strokeColor=none;fillColor=none;align=left;verticalAlign=top;spacingLeft=4;spacingRight=4;overflow=hidden;rotatable=0;points=[[0,0.5],[1,0.5]];portConstraint=eastwest;whiteSpace=wrap;html=1;" vertex="1" parent="1EVXWLcRG-oIRTYU0K3B-73">
          <mxGeometry y="40" width="140" height="26" as="geometry" />
        </mxCell>
        <mxCell id="1EVXWLcRG-oIRTYU0K3B-75" value="+ AddTitle()" style="text;strokeColor=none;fillColor=none;align=left;verticalAlign=top;spacingLeft=4;spacingRight=4;overflow=hidden;rotatable=0;points=[[0,0.5],[1,0.5]];portConstraint=eastwest;whiteSpace=wrap;html=1;" vertex="1" parent="1EVXWLcRG-oIRTYU0K3B-73">
          <mxGeometry y="66" width="140" height="26" as="geometry" />
        </mxCell>
        <mxCell id="1EVXWLcRG-oIRTYU0K3B-79" value="ViewModels" style="shape=folder;fontStyle=1;spacingTop=10;tabWidth=40;tabHeight=14;tabPosition=left;html=1;whiteSpace=wrap;" vertex="1" parent="WIyWlLk6GJQsqaUBKTNV-1">
          <mxGeometry x="80" y="260" width="140" height="90" as="geometry" />
        </mxCell>
        <mxCell id="1EVXWLcRG-oIRTYU0K3B-84" value="" style="edgeStyle=orthogonalEdgeStyle;rounded=0;orthogonalLoop=1;jettySize=auto;html=1;startArrow=classic;startFill=1;exitX=0.5;exitY=0.159;exitDx=0;exitDy=0;exitPerimeter=0;" edge="1" parent="WIyWlLk6GJQsqaUBKTNV-1" source="1EVXWLcRG-oIRTYU0K3B-80" target="1EVXWLcRG-oIRTYU0K3B-79">
          <mxGeometry relative="1" as="geometry" />
        </mxCell>
        <mxCell id="1EVXWLcRG-oIRTYU0K3B-85" style="edgeStyle=orthogonalEdgeStyle;rounded=0;orthogonalLoop=1;jettySize=auto;html=1;exitX=0.75;exitY=1;exitDx=0;exitDy=0;exitPerimeter=0;entryX=0.25;entryY=0;entryDx=0;entryDy=0;" edge="1" parent="WIyWlLk6GJQsqaUBKTNV-1" source="1EVXWLcRG-oIRTYU0K3B-80" target="1EVXWLcRG-oIRTYU0K3B-73">
          <mxGeometry relative="1" as="geometry" />
        </mxCell>
        <mxCell id="1EVXWLcRG-oIRTYU0K3B-80" value="Models" style="shape=folder;fontStyle=1;spacingTop=10;tabWidth=40;tabHeight=14;tabPosition=left;html=1;whiteSpace=wrap;" vertex="1" parent="WIyWlLk6GJQsqaUBKTNV-1">
          <mxGeometry x="80" y="380" width="140" height="90" as="geometry" />
        </mxCell>
        <mxCell id="1EVXWLcRG-oIRTYU0K3B-86" style="edgeStyle=orthogonalEdgeStyle;rounded=0;orthogonalLoop=1;jettySize=auto;html=1;entryX=0.25;entryY=1;entryDx=0;entryDy=0;entryPerimeter=0;exitX=0.25;exitY=0;exitDx=0;exitDy=0;" edge="1" parent="WIyWlLk6GJQsqaUBKTNV-1" source="1EVXWLcRG-oIRTYU0K3B-59" target="1EVXWLcRG-oIRTYU0K3B-80">
          <mxGeometry relative="1" as="geometry" />
        </mxCell>
        <mxCell id="1EVXWLcRG-oIRTYU0K3B-88" value="DTOs" style="shape=folder;fontStyle=1;spacingTop=10;tabWidth=40;tabHeight=14;tabPosition=left;html=1;whiteSpace=wrap;" vertex="1" parent="WIyWlLk6GJQsqaUBKTNV-1">
          <mxGeometry x="280" y="324" width="140" height="90" as="geometry" />
        </mxCell>
        <mxCell id="1EVXWLcRG-oIRTYU0K3B-90" style="edgeStyle=orthogonalEdgeStyle;rounded=0;orthogonalLoop=1;jettySize=auto;html=1;entryX=0.25;entryY=1;entryDx=0;entryDy=0;entryPerimeter=0;exitX=0;exitY=0;exitDx=140;exitDy=71;exitPerimeter=0;" edge="1" parent="WIyWlLk6GJQsqaUBKTNV-1" source="1EVXWLcRG-oIRTYU0K3B-80" target="1EVXWLcRG-oIRTYU0K3B-88">
          <mxGeometry relative="1" as="geometry" />
        </mxCell>
        <mxCell id="1EVXWLcRG-oIRTYU0K3B-92" value="&lt;b&gt;&amp;lt;&amp;lt;interface&amp;gt;&amp;gt;&lt;/b&gt;&lt;div&gt;&lt;b&gt;API-Handler&lt;/b&gt;&lt;/div&gt;" style="swimlane;fontStyle=0;childLayout=stackLayout;horizontal=1;startSize=40;fillColor=none;horizontalStack=0;resizeParent=1;resizeParentMax=0;resizeLast=0;collapsible=1;marginBottom=0;whiteSpace=wrap;html=1;" vertex="1" parent="WIyWlLk6GJQsqaUBKTNV-1">
          <mxGeometry x="650" y="290" width="140" height="66" as="geometry" />
        </mxCell>
        <mxCell id="1EVXWLcRG-oIRTYU0K3B-93" value="+ field: type" style="text;strokeColor=none;fillColor=none;align=left;verticalAlign=top;spacingLeft=4;spacingRight=4;overflow=hidden;rotatable=0;points=[[0,0.5],[1,0.5]];portConstraint=eastwest;whiteSpace=wrap;html=1;" vertex="1" parent="1EVXWLcRG-oIRTYU0K3B-92">
          <mxGeometry y="40" width="140" height="26" as="geometry" />
        </mxCell>
      </root>
    </mxGraphModel>
  </diagram>
</mxfile>
